<svg width="18" height="18" viewBox="0 0 18 18" fill="none" xmlns="http://www.w3.org/2000/svg">
<path d="M1.9891 0.990181C1.79016 0.990233 1.59577 1.04961 1.43076 1.16073C1.26575 1.27184 1.13762 1.42964 1.06277 1.61395C0.98791 1.79826 0.969721 2.00071 1.01052 2.19542C1.05133 2.39012 1.14927 2.56823 1.29183 2.70698L7.5848 8.99995L1.29183 15.2929C1.19586 15.3851 1.11924 15.4954 1.06645 15.6176C1.01367 15.7397 0.98578 15.8711 0.984427 16.0042C0.983073 16.1372 1.00828 16.2692 1.05857 16.3924C1.10886 16.5155 1.18322 16.6274 1.2773 16.7215C1.37138 16.8156 1.48328 16.89 1.60646 16.9402C1.72964 16.9905 1.86161 17.0157 1.99465 17.0144C2.12769 17.013 2.25912 16.9851 2.38125 16.9324C2.50338 16.8796 2.61375 16.803 2.70589 16.707L8.99886 10.414L15.2918 16.707C15.384 16.803 15.4943 16.8796 15.6165 16.9324C15.7386 16.9851 15.87 17.013 16.0031 17.0144C16.1361 17.0157 16.2681 16.9905 16.3913 16.9402C16.5144 16.89 16.6264 16.8156 16.7204 16.7215C16.8145 16.6274 16.8889 16.5155 16.9392 16.3924C16.9895 16.2692 17.0147 16.1372 17.0133 16.0042C17.012 15.8711 16.9841 15.7397 16.9313 15.6176C16.8785 15.4954 16.8019 15.3851 16.7059 15.2929L10.4129 8.99995L16.7059 2.70698C16.8504 2.56652 16.9491 2.38567 16.9891 2.18815C17.029 1.99063 17.0084 1.78565 16.9298 1.60007C16.8513 1.41448 16.7185 1.25695 16.5489 1.14812C16.3793 1.03929 16.1808 0.98424 15.9793 0.990181C15.7195 0.997922 15.473 1.1065 15.2918 1.29292L8.99886 7.58589L2.70589 1.29292C2.6127 1.19712 2.50126 1.12098 2.37815 1.06898C2.25503 1.01698 2.12274 0.990189 1.9891 0.990181Z" fill="#BFBFBF"/>
</svg>
