<svg width="27" height="26" viewBox="0 0 27 26" fill="none" xmlns="http://www.w3.org/2000/svg">
<path d="M1.52148 0L1.41016 0.873047C1.41016 0.873047 1.21394 2.38928 1.31055 4.32227C1.39951 6.10243 1.71573 8.27411 2.76562 10.0938C2.31281 10.9177 1.90942 11.7888 1.57422 12.707L1.56836 12.7227L1.56445 12.7383C1.36472 13.3472 1.15136 13.9303 0.896484 14.4727H0.898438L0 16.377L0.751953 16.8477C0.751953 16.8477 4.50541 19.2358 7.43359 21.6094L7.54688 21.9414C8.37359 24.371 10.6923 26 13.2832 26C15.8741 26 18.1928 24.371 19.0195 21.9414L19.1328 21.6094C22.061 19.2358 25.8145 16.8477 25.8145 16.8477L26.5664 16.377L25.668 14.4727H25.6699C25.415 13.9303 25.2017 13.3472 25.002 12.7383L24.998 12.7227L24.9922 12.707C24.657 11.7888 24.2536 10.9177 23.8008 10.0938C24.8507 8.27411 25.1669 6.10243 25.2559 4.32227C25.3525 2.38928 25.1562 0.873047 25.1562 0.873047L25.0449 0H24.166C20.105 0 17.8807 2.34842 16.9336 3.6875C15.7801 3.24342 14.5576 3 13.2832 3C12.0088 3 10.7863 3.24342 9.63281 3.6875C8.68574 2.34842 6.46144 0 2.40039 0H1.52148ZM3.36328 2.17773C5.78247 2.48498 7.15171 3.72881 7.82617 4.57812C6.39793 5.45156 5.12094 6.65773 4.03906 8.10547C3.58731 6.89298 3.37094 5.47023 3.30859 4.22266C3.25086 3.06749 3.31891 2.70974 3.36328 2.17773ZM23.2031 2.17773C23.2475 2.70974 23.3155 3.06749 23.2578 4.22266C23.1955 5.47023 22.9791 6.89298 22.5273 8.10547C21.4455 6.65773 20.1685 5.45156 18.7402 4.57812C19.4147 3.72881 20.7839 2.48498 23.2031 2.17773ZM13.2832 5C17.4877 5 21.2594 8.31405 23.1133 13.3926C23.323 14.0298 23.5571 14.681 23.8594 15.3242L24.0234 15.6719C23.3365 16.1065 20.456 17.8981 17.6523 20.2129L17.4297 20.3965L17.3359 20.6797L17.125 21.2969C16.5777 22.9053 15.0383 24 13.2832 24C11.5281 24 9.9887 22.9053 9.44141 21.2969L9.23047 20.6797L9.13672 20.3965L8.91406 20.2129C6.11038 17.8981 3.22986 16.1065 2.54297 15.6719L2.70703 15.3242C3.00929 14.681 3.24342 14.0298 3.45312 13.3926C5.30701 8.31405 9.0787 5 13.2832 5ZM7.2832 13C7.2832 13 7.68242 16 9.48242 16H11.2832C11.2832 16 10.884 13 9.08398 13H7.2832ZM17.4824 13C15.6824 13 15.2832 16 15.2832 16H17.084C18.884 16 19.2832 13 19.2832 13H17.4824ZM11.9746 19C11.3606 19 11.0513 19.8285 11.4863 20.3145L12.7949 21.7754C13.0649 22.0764 13.5025 22.0764 13.7715 21.7754L15.0801 20.3145C15.5151 19.8285 15.2068 19 14.5918 19H11.9746Z" fill="#727272"/>
</svg>
