<svg width="30" height="30" viewBox="0 0 30 30" fill="none" xmlns="http://www.w3.org/2000/svg">
<path d="M26.919 0.00110527C26.8298 -0.00304449 26.7392 0.00446792 26.6464 0.0240324C24.4492 0.483984 22.1098 1.79689 20.5606 2.76765C19.1541 1.8981 17.3405 1.30541 14.9587 1.30541C12.5769 1.30541 10.7633 1.8981 9.35682 2.76765C7.80741 1.79689 5.46902 0.483984 3.27094 0.0240324C2.5301 -0.131179 1.86209 0.514551 1.92079 1.26974C2.13293 4.04498 2.98157 6.79272 4.53703 8.74654C3.07667 9.45201 0.959667 10.8174 0 13.9561C0 13.9561 1.82221 14.8054 2.38697 15.2528C1.22093 16.4853 0.611391 17.9291 0.611391 19.6038C4.32604 19.6038 7.16022 22.162 8.43974 23.9345C9.52231 25.4344 10.6349 30 14.9587 30C19.2824 30 20.3951 25.4344 21.4776 23.9345C22.7572 22.162 25.5913 19.6038 29.306 19.6038C29.306 17.9291 28.6952 16.4853 27.5279 15.2528C28.0926 14.8054 29.9174 13.9561 29.9174 13.9561C28.9577 10.8174 26.8407 9.45201 25.3804 8.74654C26.9358 6.79272 27.7844 4.04498 27.9966 1.26974C28.0468 0.60895 27.5432 0.030154 26.919 0.00110527ZM9.10972 14.3484L12.3501 17.5888C11.9353 18.0035 11.3638 18.2613 10.7299 18.2613C9.46343 18.2613 8.43719 17.2364 8.43719 15.9686C8.43719 15.336 8.69495 14.7632 9.10972 14.3484ZM20.8077 14.3484C21.2224 14.7632 21.4802 15.336 21.4802 15.9686C21.4802 17.2364 20.4539 18.2613 19.1875 18.2613C18.5549 18.2613 17.9834 18.0035 17.5673 17.5888L20.8077 14.3484ZM14.9536 23.4734H14.9561H14.9612C15.4843 23.4747 15.9358 23.5376 16.3088 23.6263C17.0966 23.8128 17.3809 24.8041 16.8005 25.3636C16.3988 25.751 15.8116 26.0794 14.9638 26.082H14.9587H14.9536C14.1071 26.0794 13.5186 25.751 13.1169 25.3636C12.5378 24.8028 12.8221 23.8128 13.606 23.6263C13.979 23.5376 14.4319 23.4747 14.9536 23.4734Z" fill="#E8E8E8"/>
</svg>
