<svg width="30" height="30" viewBox="0 0 30 30" fill="none" xmlns="http://www.w3.org/2000/svg">
<path d="M8.99998 5.40538e-05C6.53253 5.40538e-05 4.49999 2.0326 4.49999 4.50005V21H1.5C1.10219 21.0001 0.720678 21.1581 0.439383 21.4394C0.158088 21.7207 3.97752e-05 22.1022 0 22.5V25.5C0 27.9675 2.03254 30 4.49999 30H18H19.5C21.9674 30 24 27.9675 24 25.5V9.00004H28.5C28.8978 9 29.2793 8.84195 29.5606 8.56065C29.8419 8.27936 29.9999 7.89785 29.9999 7.50004V4.50005C29.9999 2.14274 28.1394 0.202604 25.8222 0.0322806C25.7163 0.00994002 25.6082 -0.000865081 25.5 5.40538e-05H8.99998ZM25.5 3.00005C26.3475 3.00005 27 3.6525 27 4.50005V6.00004H24V4.50005C24 3.6525 24.6524 3.00005 25.5 3.00005ZM2.99999 24H5.74804C5.91002 24.0268 6.07531 24.0268 6.23729 24H14.9853L15 25.5352V25.541C15.007 26.0548 15.1218 26.5406 15.29 27H4.49999C3.65245 27 2.99999 26.3476 2.99999 25.5V24Z" fill="#E8E8E8"/>
</svg>
