<svg width="26" height="26" viewBox="0 0 26 26" fill="none" xmlns="http://www.w3.org/2000/svg">
<path d="M7.8 0C5.66154 0 3.9 1.76154 3.9 3.9V18.2H1C0.447715 18.2 0 18.6477 0 19.2V22.1C0 24.2385 1.76154 26 3.9 26H15.6H16.9C19.0385 26 20.8 24.2385 20.8 22.1V7.8H25C25.5523 7.8 26 7.35228 26 6.8V3.9C26 1.76154 24.2385 0 22.1 0H7.8ZM7.8 2.6H18.4437C18.2961 3.00936 18.2 3.4426 18.2 3.9V22.1C18.2 22.8282 17.6431 23.3879 16.9178 23.3975V23.3822C16.1852 23.3921 15.6099 22.832 15.6 22.1L15.5736 19.206C15.5685 18.6533 15.1162 18.2096 14.5636 18.2151L14.3 18.2178V18.2H6.5V3.9C6.5 3.16546 7.06546 2.6 7.8 2.6ZM22.1 2.6C22.8345 2.6 23.4 3.16546 23.4 3.9V5.2H20.8V3.9C20.8 3.16546 21.3655 2.6 22.1 2.6ZM2.6 20.8H12.9873L13 22.133V22.1355C13.0061 22.5809 13.1056 23.0018 13.2514 23.4H3.9C3.16546 23.4 2.6 22.8345 2.6 22.1V20.8Z" fill="#727272"/>
</svg>
