<svg width="28" height="26" viewBox="0 0 28 26" fill="none" xmlns="http://www.w3.org/2000/svg">
<path d="M26.0809 0.00068508C26.0477 -0.000547662 26.0145 -0.00011654 25.9814 0.00197679C25.8056 0.0124299 25.6358 0.0694966 25.4893 0.167315C24.7512 0.659352 22.7589 1.37128 21.0549 1.85816C19.3858 2.33505 17.9846 2.64735 17.9264 2.66031C17.6865 2.7 17.4695 2.82641 17.3167 3.01553L6.51155 13.1658C6.4147 13.2568 6.33711 13.3663 6.28341 13.4879C6.22971 13.6095 6.20098 13.7406 6.19893 13.8735C6.19688 14.0064 6.22156 14.1383 6.27149 14.2615C6.32142 14.3847 6.39559 14.4965 6.4896 14.5905L7.09411 15.195L0.8513 20.9173C-0.25035 21.9267 -0.287952 23.6841 0.768631 24.7407C1.90314 25.8755 3.5812 26.2845 5.11005 25.7986C7.56236 25.0195 9.48081 23.0882 10.2433 20.6305L10.7845 18.8854L11.4497 19.5507C11.6099 19.7107 11.8199 19.8111 12.045 19.8353C12.2701 19.8595 12.4967 19.806 12.6872 19.6837C13.7225 19.0181 14.6964 18.2809 15.6168 17.5007C15.3711 18.0074 15.1272 18.578 15.1272 18.8493C15.1272 19.3969 15.5717 19.8413 16.1193 19.8413C16.6669 19.8413 17.1113 19.3969 17.1113 18.8493C17.1113 18.406 16.5555 17.3548 16.3079 16.8975C23.4877 10.4352 26.9644 1.35181 26.9644 1.35181C27.0217 1.20468 27.043 1.04601 27.0266 0.888988C27.0102 0.731962 26.9566 0.581115 26.8702 0.44898C26.7838 0.316845 26.6671 0.207239 26.5298 0.129269C26.3925 0.0512987 26.2386 0.0072165 26.0809 0.00068508ZM24.0013 3.00519C22.7392 5.55911 20.3512 9.76474 16.8646 13.49C17.2804 11.7087 17.8774 10.8088 18.4689 10.0605C18.8902 9.52742 19.3629 9.04483 19.7606 8.34898C20.1582 7.65313 20.4181 6.76384 20.4181 5.62219C20.4181 5.05492 20.3118 4.56365 20.1416 4.15352C20.5831 4.04014 21.0169 3.93132 21.6 3.76472C22.3889 3.5393 23.2129 3.28294 24.0013 3.00519ZM18.2932 4.82262C18.3649 4.94072 18.434 5.15348 18.434 5.62219C18.434 6.49204 18.2805 6.93937 18.0374 7.3647C17.7944 7.79003 17.3991 8.21335 16.9111 8.83079C15.9649 10.0279 14.8872 11.9117 14.5098 15.7685C13.7895 16.3926 13.035 16.9879 12.2416 17.5369L8.61704 13.9124L18.2932 4.82262ZM8.15331 16.9156L9.04201 17.8043L8.34836 20.0428C7.77756 21.8826 6.34532 23.3243 4.50941 23.9076C3.68289 24.1702 2.7842 23.9512 2.17142 23.3379C1.89472 23.0612 1.90357 22.6438 2.19209 22.3795L8.15331 16.9156ZM14.4659 21.071C14.2456 21.071 14.0252 21.1789 13.8962 21.3952C13.5378 21.9957 13.1432 22.7486 13.1432 23.1481C13.1432 23.8789 13.7351 24.4708 14.4659 24.4708C15.1967 24.4708 15.7886 23.8789 15.7886 23.1481C15.7886 22.7486 15.394 21.9957 15.0355 21.3952C14.9066 21.1789 14.6861 21.071 14.4659 21.071Z" fill="#E6E6E6"/>
</svg>
