<svg width="32" height="30" viewBox="0 0 32 30" fill="none" xmlns="http://www.w3.org/2000/svg">
<path d="M30.1053 0.0011673C29.8681 -0.00951591 29.6273 0.0530572 29.4198 0.191939C27.6891 1.34573 22.503 2.66678 20.6502 3.07885C20.4495 3.12311 20.2632 3.22238 20.1137 3.36203L7.52275 15.1899C7.29688 15.402 7.16742 15.6968 7.16208 16.0066C7.1575 16.3164 7.27841 16.6148 7.49742 16.8338L8.19493 17.5313L0.991809 24.1338C0.37142 24.7015 0.019768 25.4785 0.000690886 26.3187C-0.0168601 27.1604 0.300488 27.9509 0.894933 28.5454C1.84192 29.4924 3.10395 30 4.39738 30C4.90102 30 5.40814 29.924 5.90567 29.766C8.73443 28.8663 10.9487 26.6363 11.8285 23.8014L12.453 21.7879L13.2206 22.5554C13.4411 22.7783 13.7353 22.8923 14.0313 22.8923C14.2442 22.8923 14.4599 22.8325 14.6499 22.7104C15.8433 21.9428 16.9664 21.0936 18.0286 20.1931C17.7447 20.7777 17.4637 21.4348 17.4637 21.7476C17.4637 22.3795 17.9765 22.8923 18.6084 22.8923C19.2402 22.8923 19.753 22.3795 19.753 21.7476C19.753 21.2936 19.1646 20.1185 18.8319 19.4897C26.9016 12.2175 30.9287 2.05537 31.1218 1.56013C31.3026 1.09465 31.1607 0.563657 30.7715 0.251555C30.5766 0.0951223 30.3426 0.0118505 30.1053 0.0011673ZM21.1003 5.57677C21.2102 5.77746 21.2792 6.08453 21.2792 6.48591C21.2792 8.06245 20.7907 8.65097 19.981 9.62619C18.8189 11.0257 17.237 12.9424 16.7364 18.2825C15.9222 18.9868 15.0695 19.6555 14.1759 20.2736L9.95062 16.0498L21.1003 5.57677ZM16.7007 24.3111C16.4465 24.3111 16.1922 24.4357 16.0434 24.6852C15.6298 25.3781 15.1745 26.2468 15.1745 26.7077C15.1745 27.5509 15.8582 28.2339 16.7007 28.2339C17.5431 28.2339 18.2268 27.5509 18.2268 26.7077C18.2268 26.2468 17.7715 25.3781 17.3579 24.6852C17.2091 24.4357 16.9548 24.3111 16.7007 24.3111Z" fill="#E8E8E8"/>
</svg>
