<svg width="29" height="26" viewBox="0 0 29 26" fill="none" xmlns="http://www.w3.org/2000/svg">
<path d="M14.4444 0C13.6466 0 13.1151 0.275165 12.495 0.606554C11.8749 0.937943 11.2143 1.37657 10.5089 1.89865C9.09811 2.94282 7.51379 4.32628 6.00347 5.80599C4.49316 7.2857 3.06403 8.85539 1.97483 10.2973C0.885624 11.7392 0 12.8484 0 14.4444C3.83021e-05 14.8275 0.152233 15.1949 0.42311 15.4658C0.693988 15.7367 1.06137 15.8889 1.44444 15.8889H4.33333V24.5556C4.33337 24.9386 4.48557 25.306 4.75644 25.5769C5.02732 25.8478 5.3947 26 5.77778 26H11.5556H17.3333H23.1111C23.4942 26 23.8616 25.8478 24.1324 25.5769C24.4033 25.306 24.5555 24.9386 24.5556 24.5556V15.8889H27.4444C27.8275 15.8889 28.1949 15.7367 28.4658 15.4658C28.7367 15.1949 28.8889 14.8275 28.8889 14.4444C28.8889 12.8483 28.0034 11.7392 26.9141 10.2973C25.8247 8.8554 24.393 7.28569 22.8826 5.80599C21.3722 4.32629 19.7907 2.9428 18.38 1.89865C17.6746 1.37658 17.0138 0.940758 16.3939 0.609375C15.7739 0.277992 15.2424 0 14.4444 0ZM14.4444 2.91146C14.5294 2.94102 14.7544 3.00742 15.0341 3.1569C15.4635 3.38645 16.0324 3.75458 16.6619 4.22049C17.9208 5.15229 19.4325 6.46721 20.8626 7.86827C22.2928 9.26934 23.6478 10.7655 24.6092 12.038C24.9934 12.5466 24.944 12.5839 25.1649 13H3.72396C3.94485 12.5839 3.8955 12.5466 4.27973 12.038C5.24096 10.7655 6.59623 9.26933 8.02626 7.86827C9.45629 6.46722 10.968 5.15227 12.227 4.22049C12.8565 3.75459 13.4253 3.38645 13.8548 3.1569C14.136 3.00663 14.3608 2.94077 14.4444 2.91146ZM7.22222 15.8889H21.6667V23.1111H17.3333V20.2222C17.3333 18.6261 16.0406 17.3333 14.4444 17.3333C12.8483 17.3333 11.5556 18.6261 11.5556 20.2222V23.1111H7.22222V15.8889Z" fill="#E6E6E6"/>
</svg>
