<svg width="34" height="30" viewBox="0 0 34 30" fill="none" xmlns="http://www.w3.org/2000/svg">
<path d="M16.6667 0C15.8271 0 15.2148 0.260104 14.5052 0.585938C13.7956 0.911771 13.0348 1.34488 12.2201 1.86523C10.5906 2.90595 8.76057 4.29238 7.01172 5.79102C5.26287 7.28965 3.60223 8.89159 2.33073 10.4069C1.05922 11.9222 0 13.1584 0 15C4.41948e-05 15.442 0.175653 15.8659 0.488204 16.1785C0.800755 16.491 1.22465 16.6666 1.66667 16.6667H31.6667C32.1087 16.6666 32.5326 16.491 32.8451 16.1785C33.1577 15.8659 33.3333 15.442 33.3333 15C33.3333 13.1582 32.2742 11.9222 31.0026 10.4069C29.731 8.8916 28.0706 7.28963 26.3216 5.79102C24.5727 4.2924 22.7426 2.90593 21.1133 1.86523C20.2986 1.34489 19.5376 0.911767 18.8281 0.585938C18.1186 0.260108 17.5063 0 16.6667 0ZM5 20V28.3333C5.00004 28.7753 5.17565 29.1992 5.4882 29.5118C5.80076 29.8243 6.22465 30 6.66667 30H13.3333V28.3333V26.6667C13.3333 24.825 14.825 23.3333 16.6667 23.3333C18.5083 23.3333 20 24.825 20 26.6667V28.3333V30H26.6667C27.1087 30 27.5326 29.8243 27.8451 29.5118C28.1577 29.1992 28.3333 28.7753 28.3333 28.3333V20H26.6667H25H8.33333H6.66667H5Z" fill="#E8E8E8"/>
</svg>
